<svg width="133" height="24" viewBox="0 0 133 24" fill="none" xmlns="http://www.w3.org/2000/svg">
<g clip-path="url(#clip0_7_7)">
<path fill-rule="evenodd" clip-rule="evenodd" d="M13.1854 14.8818V8.1182C13.1854 8.736 12.2924 9.28123 10.9309 9.6063C10.0971 9.80533 9.08767 9.92183 8 9.92183C6.91233 9.92183 5.90287 9.80533 5.0691 9.6063C3.70757 9.28123 2.81455 8.736 2.81455 8.1182V14.8818C2.81455 15.4996 3.70757 16.0449 5.0691 16.3699C5.90287 16.569 6.91233 16.6855 8 16.6855C9.08767 16.6855 10.0971 16.569 10.9309 16.3699C12.2924 16.0449 13.1854 15.4996 13.1854 14.8818V14.8818Z" fill="#0D121C"/>
<path fill-rule="evenodd" clip-rule="evenodd" d="M3.48283 8.1173C3.49163 8.14237 3.5401 8.24867 3.793 8.41203C4.09933 8.60993 4.58307 8.80483 5.2239 8.95783C6.00023 9.1432 6.95707 9.25517 8 9.25517C9.04293 9.25517 9.99977 9.1432 10.7761 8.95783C11.4169 8.80483 11.9007 8.60993 12.207 8.41203C12.4599 8.24867 12.5084 8.14237 12.5172 8.1173C12.5096 8.09587 12.4778 8.03243 12.3545 7.93103C12.1755 7.78387 11.8763 7.62157 11.4477 7.4725C10.5967 7.1765 9.37777 6.98123 8 6.98123C6.62223 6.98123 5.4033 7.1765 4.55233 7.4725C4.12373 7.62157 3.82447 7.78387 3.6455 7.93103C3.52223 8.03243 3.49043 8.09587 3.48283 8.1173V8.1173ZM12.5188 9.76257C12.1059 9.96417 11.6167 10.128 11.0857 10.2547C10.1945 10.4675 9.13243 10.5885 8 10.5885C6.86757 10.5885 5.80547 10.4675 4.9143 10.2547C4.38327 10.128 3.89413 9.96417 3.4812 9.76257V14.8758C3.48383 14.8848 3.51423 14.9956 3.793 15.1757C4.09933 15.3736 4.58307 15.5685 5.2239 15.7215C6.00023 15.9068 6.95707 16.0188 8 16.0188C9.04293 16.0188 9.99977 15.9068 10.7761 15.7215C11.4169 15.5685 11.9007 15.3736 12.207 15.1757C12.4858 14.9956 12.5162 14.8849 12.5188 14.8758V9.76257V9.76257ZM13.8521 8.1182V14.8818C13.8521 15.5359 13.386 16.0014 12.9305 16.2956C12.4499 16.6061 11.8064 16.8463 11.0857 17.0184C10.1945 17.2311 9.13243 17.3521 8 17.3521C6.86757 17.3521 5.80547 17.2311 4.9143 17.0184C4.1936 16.8463 3.55007 16.6061 3.06949 16.2956C2.61402 16.0014 2.14788 15.5359 2.14788 14.8818V8.1182C2.14788 7.58947 2.45741 7.1818 2.7986 6.9012C3.14442 6.61683 3.60457 6.39047 4.11433 6.21316C5.1401 5.85636 6.51393 5.64789 8 5.64789C9.48607 5.64789 10.8599 5.85636 11.8857 6.21316C12.3954 6.39047 12.8556 6.61683 13.2014 6.9012C13.5426 7.1818 13.8521 7.58947 13.8521 8.1182V8.1182Z" fill="#0D121C"/>
</g>
<path d="M33.584 18.25V5.65H36.32L40.91 13.12L38.948 13.102L43.592 5.65H46.22V18.25H43.25V14.326C43.25 13.246 43.274 12.274 43.322 11.41C43.382 10.546 43.478 9.688 43.61 8.836L43.952 9.772L40.46 15.19H39.272L35.852 9.808L36.194 8.836C36.326 9.64 36.416 10.468 36.464 11.32C36.524 12.16 36.554 13.162 36.554 14.326V18.25H33.584ZM53.3107 18.43C52.3147 18.43 51.4267 18.214 50.6467 17.782C49.8787 17.35 49.2667 16.762 48.8107 16.018C48.3667 15.274 48.1447 14.422 48.1447 13.462C48.1447 12.502 48.3667 11.65 48.8107 10.906C49.2667 10.162 49.8787 9.574 50.6467 9.142C51.4267 8.71 52.3147 8.494 53.3107 8.494C54.3067 8.494 55.1887 8.71 55.9567 9.142C56.7367 9.574 57.3487 10.162 57.7927 10.906C58.2367 11.65 58.4587 12.502 58.4587 13.462C58.4587 14.422 58.2367 15.274 57.7927 16.018C57.3487 16.762 56.7367 17.35 55.9567 17.782C55.1887 18.214 54.3067 18.43 53.3107 18.43ZM53.3107 15.946C53.7427 15.946 54.1267 15.838 54.4627 15.622C54.7987 15.406 55.0627 15.112 55.2547 14.74C55.4467 14.368 55.5367 13.942 55.5247 13.462C55.5367 12.982 55.4467 12.556 55.2547 12.184C55.0627 11.8 54.7987 11.5 54.4627 11.284C54.1267 11.068 53.7427 10.96 53.3107 10.96C52.8787 10.96 52.4887 11.068 52.1407 11.284C51.8047 11.5 51.5407 11.8 51.3487 12.184C51.1567 12.556 51.0667 12.982 51.0787 13.462C51.0667 13.942 51.1567 14.368 51.3487 14.74C51.5407 15.112 51.8047 15.406 52.1407 15.622C52.4887 15.838 52.8787 15.946 53.3107 15.946ZM62.7423 18.25L58.7463 8.692H61.9323L64.3083 15.838L63.6063 15.91L66.0543 8.692H69.2043L65.0103 18.25H62.7423ZM74.7271 18.43C73.6711 18.43 72.7531 18.22 71.9731 17.8C71.1931 17.368 70.5871 16.786 70.1551 16.054C69.7231 15.31 69.5071 14.464 69.5071 13.516C69.5071 12.784 69.6271 12.112 69.8671 11.5C70.1071 10.888 70.4431 10.36 70.8751 9.916C71.3071 9.46 71.8171 9.112 72.4051 8.872C73.0051 8.62 73.6591 8.494 74.3671 8.494C75.0391 8.494 75.6511 8.614 76.2031 8.854C76.7671 9.094 77.2531 9.43 77.6611 9.862C78.0691 10.294 78.3811 10.804 78.5971 11.392C78.8131 11.98 78.9091 12.622 78.8851 13.318L78.8671 14.092H71.2531L70.8391 12.472H76.5271L76.2211 12.814V12.454C76.1971 12.154 76.1011 11.89 75.9331 11.662C75.7771 11.422 75.5671 11.236 75.3031 11.104C75.0391 10.972 74.7391 10.906 74.4031 10.906C73.9351 10.906 73.5331 11.002 73.1971 11.194C72.8731 11.374 72.6271 11.644 72.4591 12.004C72.2911 12.352 72.2071 12.784 72.2071 13.3C72.2071 13.828 72.3151 14.29 72.5311 14.686C72.7591 15.07 73.0831 15.37 73.5031 15.586C73.9351 15.802 74.4451 15.91 75.0331 15.91C75.4411 15.91 75.8011 15.85 76.1131 15.73C76.4371 15.61 76.7851 15.406 77.1571 15.118L78.5071 17.026C78.1351 17.35 77.7391 17.614 77.3191 17.818C76.8991 18.022 76.4671 18.172 76.0231 18.268C75.5911 18.376 75.1591 18.43 74.7271 18.43ZM80.756 18.25V5.65H83.492L88.082 13.12L86.12 13.102L90.764 5.65H93.392V18.25H90.422V14.326C90.422 13.246 90.446 12.274 90.494 11.41C90.554 10.546 90.65 9.688 90.782 8.836L91.124 9.772L87.632 15.19H86.444L83.024 9.808L83.366 8.836C83.498 9.64 83.588 10.468 83.636 11.32C83.696 12.16 83.726 13.162 83.726 14.326V18.25H80.756ZM100.537 18.43C99.4807 18.43 98.5627 18.22 97.7827 17.8C97.0027 17.368 96.3967 16.786 95.9647 16.054C95.5327 15.31 95.3167 14.464 95.3167 13.516C95.3167 12.784 95.4367 12.112 95.6767 11.5C95.9167 10.888 96.2527 10.36 96.6847 9.916C97.1167 9.46 97.6267 9.112 98.2147 8.872C98.8147 8.62 99.4687 8.494 100.177 8.494C100.849 8.494 101.461 8.614 102.013 8.854C102.577 9.094 103.063 9.43 103.471 9.862C103.879 10.294 104.191 10.804 104.407 11.392C104.623 11.98 104.719 12.622 104.695 13.318L104.677 14.092H97.0627L96.6487 12.472H102.337L102.031 12.814V12.454C102.007 12.154 101.911 11.89 101.743 11.662C101.587 11.422 101.377 11.236 101.113 11.104C100.849 10.972 100.549 10.906 100.213 10.906C99.7447 10.906 99.3427 11.002 99.0067 11.194C98.6827 11.374 98.4367 11.644 98.2687 12.004C98.1007 12.352 98.0167 12.784 98.0167 13.3C98.0167 13.828 98.1247 14.29 98.3407 14.686C98.5687 15.07 98.8927 15.37 99.3127 15.586C99.7447 15.802 100.255 15.91 100.843 15.91C101.251 15.91 101.611 15.85 101.923 15.73C102.247 15.61 102.595 15.406 102.967 15.118L104.317 17.026C103.945 17.35 103.549 17.614 103.129 17.818C102.709 18.022 102.277 18.172 101.833 18.268C101.401 18.376 100.969 18.43 100.537 18.43ZM109.878 18.448C109.05 18.448 108.312 18.238 107.664 17.818C107.028 17.386 106.524 16.798 106.152 16.054C105.78 15.298 105.594 14.44 105.594 13.48C105.594 12.52 105.78 11.668 106.152 10.924C106.524 10.168 107.034 9.574 107.682 9.142C108.33 8.71 109.074 8.494 109.914 8.494C110.346 8.494 110.76 8.56 111.156 8.692C111.552 8.824 111.912 9.004 112.236 9.232C112.56 9.46 112.824 9.724 113.028 10.024C113.232 10.312 113.352 10.612 113.388 10.924L112.704 11.086V4.93H115.602V18.25H112.92L112.758 16.072L113.334 16.162C113.298 16.462 113.178 16.75 112.974 17.026C112.782 17.302 112.53 17.548 112.218 17.764C111.906 17.968 111.546 18.13 111.138 18.25C110.742 18.382 110.322 18.448 109.878 18.448ZM110.616 16.054C111.06 16.054 111.444 15.946 111.768 15.73C112.092 15.514 112.338 15.214 112.506 14.83C112.686 14.446 112.776 13.996 112.776 13.48C112.776 12.952 112.686 12.496 112.506 12.112C112.338 11.728 112.092 11.428 111.768 11.212C111.444 10.996 111.06 10.888 110.616 10.888C110.172 10.888 109.788 10.996 109.464 11.212C109.152 11.428 108.906 11.728 108.726 12.112C108.546 12.496 108.456 12.952 108.456 13.48C108.456 13.996 108.546 14.446 108.726 14.83C108.906 15.214 109.152 15.514 109.464 15.73C109.788 15.946 110.172 16.054 110.616 16.054ZM117.929 18.25V8.692H120.809V18.25H117.929ZM119.369 6.802C118.829 6.802 118.403 6.676 118.091 6.424C117.791 6.16 117.641 5.788 117.641 5.308C117.641 4.876 117.797 4.522 118.109 4.246C118.421 3.97 118.841 3.832 119.369 3.832C119.909 3.832 120.329 3.964 120.629 4.228C120.929 4.48 121.079 4.84 121.079 5.308C121.079 5.752 120.923 6.112 120.611 6.388C120.311 6.664 119.897 6.802 119.369 6.802ZM126.773 18.412C125.969 18.412 125.249 18.202 124.613 17.782C123.989 17.35 123.491 16.762 123.119 16.018C122.747 15.262 122.561 14.41 122.561 13.462C122.561 12.49 122.747 11.632 123.119 10.888C123.491 10.144 124.001 9.562 124.649 9.142C125.297 8.71 126.035 8.494 126.863 8.494C127.319 8.494 127.733 8.56 128.105 8.692C128.489 8.824 128.825 9.01 129.113 9.25C129.401 9.478 129.647 9.748 129.851 10.06C130.055 10.36 130.205 10.684 130.301 11.032L129.707 10.96V8.692H132.569V18.25H129.653V15.946L130.301 15.928C130.205 16.264 130.049 16.582 129.833 16.882C129.617 17.182 129.353 17.446 129.041 17.674C128.729 17.902 128.381 18.082 127.997 18.214C127.613 18.346 127.205 18.412 126.773 18.412ZM127.565 15.982C128.009 15.982 128.393 15.88 128.717 15.676C129.041 15.472 129.293 15.184 129.473 14.812C129.653 14.428 129.743 13.978 129.743 13.462C129.743 12.946 129.653 12.502 129.473 12.13C129.293 11.746 129.041 11.452 128.717 11.248C128.393 11.032 128.009 10.924 127.565 10.924C127.133 10.924 126.755 11.032 126.431 11.248C126.119 11.452 125.873 11.746 125.693 12.13C125.513 12.502 125.423 12.946 125.423 13.462C125.423 13.978 125.513 14.428 125.693 14.812C125.873 15.184 126.119 15.472 126.431 15.676C126.755 15.88 127.133 15.982 127.565 15.982Z" fill="#0D121C"/>
<defs>
<clipPath id="clip0_7_7">
<rect width="16" height="16" fill="white" transform="translate(0 3.5)"/>
</clipPath>
</defs>
</svg>
