<svg width="20" height="20" viewBox="0 0 20 20" fill="none" xmlns="http://www.w3.org/2000/svg">
<path fill-rule="evenodd" clip-rule="evenodd" d="M10 0.25C4.61522 0.25 0.25 4.61522 0.25 10C0.25 15.3848 4.61522 19.75 10 19.75C15.3848 19.75 19.75 15.3848 19.75 10C19.7443 4.61758 15.3824 0.255684 10 0.25V0.25ZM10 18.25C5.44365 18.25 1.75 14.5563 1.75 10C1.75 5.44365 5.44365 1.75 10 1.75C14.5563 1.75 18.25 5.44365 18.25 10C18.2448 14.5542 14.5542 18.2448 10 18.25V18.25ZM14.1644 4.82875L8.16438 7.82875C8.01932 7.90162 7.90162 8.01932 7.82875 8.16438L4.82875 14.1644C4.71237 14.397 4.72478 14.6732 4.86155 14.8944C4.99832 15.1156 5.23993 15.2502 5.5 15.25C5.61643 15.2498 5.73127 15.2229 5.83563 15.1712L11.8356 12.1713C11.9807 12.0984 12.0984 11.9807 12.1713 11.8356L15.1712 5.83563C15.3164 5.54669 15.2601 5.19724 15.0314 4.96859C14.8028 4.73995 14.4533 4.68358 14.1644 4.82875V4.82875ZM10.9375 10.9375L7.17719 12.8228L9.0625 9.0625L12.8266 7.18094L10.9375 10.9375Z" fill="#0D121C"/>
</svg>
