<svg width="22" height="20" viewBox="0 0 22 20" fill="none" xmlns="http://www.w3.org/2000/svg">
<path fill-rule="evenodd" clip-rule="evenodd" d="M14.75 18C14.75 18.4142 14.4142 18.75 14 18.75H8C7.58579 18.75 7.25 18.4142 7.25 18C7.25 17.5858 7.58579 17.25 8 17.25H14C14.4142 17.25 14.75 17.5858 14.75 18ZM20.75 3V13.5C20.75 14.7426 19.7426 15.75 18.5 15.75H3.5C2.25736 15.75 1.25 14.7426 1.25 13.5V3C1.25 1.75736 2.25736 0.75 3.5 0.75H18.5C19.7426 0.75 20.75 1.75736 20.75 3ZM14.375 8.25C14.3749 7.99346 14.2437 7.75476 14.0272 7.61719L9.90219 4.99219C9.67126 4.84547 9.37876 4.83615 9.13895 4.96786C8.89914 5.09956 8.75008 5.35141 8.75 5.625V10.875C8.75008 11.1486 8.89914 11.4004 9.13895 11.5321C9.37876 11.6639 9.67126 11.6545 9.90219 11.5078L14.0272 8.88281C14.2437 8.74524 14.3749 8.50654 14.375 8.25Z" fill="#0D121C" stroke="black"/>
</svg>
